<mxfile host="Electron" agent="Mozilla/5.0 (Windows NT 10.0; Win64; x64) AppleWebKit/537.36 (KHTML, like Gecko) draw.io/24.7.5 Chrome/126.0.6478.183 Electron/31.3.0 Safari/537.36" version="24.7.5">
  <diagram name="Page-1" id="OlsGICXNVg1a2raVg_bQ">
    <mxGraphModel dx="782" dy="499" grid="1" gridSize="10" guides="1" tooltips="1" connect="1" arrows="1" fold="1" page="1" pageScale="1" pageWidth="850" pageHeight="1100" math="0" shadow="0">
      <root>
        <mxCell id="0" />
        <mxCell id="1" parent="0" />
        <mxCell id="bLj40t2lKKoUGWACWEi6-3" value="" style="edgeStyle=orthogonalEdgeStyle;rounded=0;orthogonalLoop=1;jettySize=auto;html=1;" edge="1" parent="1" source="bLj40t2lKKoUGWACWEi6-1" target="bLj40t2lKKoUGWACWEi6-2">
          <mxGeometry relative="1" as="geometry" />
        </mxCell>
        <mxCell id="bLj40t2lKKoUGWACWEi6-1" value="Start" style="ellipse;whiteSpace=wrap;html=1;" vertex="1" parent="1">
          <mxGeometry x="155" y="10" width="70" height="50" as="geometry" />
        </mxCell>
        <mxCell id="bLj40t2lKKoUGWACWEi6-5" value="" style="edgeStyle=orthogonalEdgeStyle;rounded=0;orthogonalLoop=1;jettySize=auto;html=1;" edge="1" parent="1" source="bLj40t2lKKoUGWACWEi6-2" target="bLj40t2lKKoUGWACWEi6-4">
          <mxGeometry relative="1" as="geometry" />
        </mxCell>
        <mxCell id="bLj40t2lKKoUGWACWEi6-2" value="InputCustomers&lt;div&gt;LastName&lt;/div&gt;" style="shape=parallelogram;perimeter=parallelogramPerimeter;whiteSpace=wrap;html=1;fixedSize=1;" vertex="1" parent="1">
          <mxGeometry x="130" y="80" width="120" height="50" as="geometry" />
        </mxCell>
        <mxCell id="bLj40t2lKKoUGWACWEi6-7" value="" style="edgeStyle=orthogonalEdgeStyle;rounded=0;orthogonalLoop=1;jettySize=auto;html=1;" edge="1" parent="1" source="bLj40t2lKKoUGWACWEi6-4" target="bLj40t2lKKoUGWACWEi6-6">
          <mxGeometry relative="1" as="geometry" />
        </mxCell>
        <mxCell id="bLj40t2lKKoUGWACWEi6-4" value="InputNumberof&lt;div&gt;BathroomstobeCleaned&lt;/div&gt;" style="shape=parallelogram;perimeter=parallelogramPerimeter;whiteSpace=wrap;html=1;fixedSize=1;" vertex="1" parent="1">
          <mxGeometry x="110" y="160" width="160" height="50" as="geometry" />
        </mxCell>
        <mxCell id="bLj40t2lKKoUGWACWEi6-9" value="" style="edgeStyle=orthogonalEdgeStyle;rounded=0;orthogonalLoop=1;jettySize=auto;html=1;" edge="1" parent="1" source="bLj40t2lKKoUGWACWEi6-6" target="bLj40t2lKKoUGWACWEi6-8">
          <mxGeometry relative="1" as="geometry" />
        </mxCell>
        <mxCell id="bLj40t2lKKoUGWACWEi6-6" value="InputNumberof&lt;div&gt;OtherRoomstobeCleaned&lt;/div&gt;" style="shape=parallelogram;perimeter=parallelogramPerimeter;whiteSpace=wrap;html=1;fixedSize=1;" vertex="1" parent="1">
          <mxGeometry x="105" y="240" width="170" height="50" as="geometry" />
        </mxCell>
        <mxCell id="bLj40t2lKKoUGWACWEi6-8" value="ServiceCharge=$40.00+$15.00*EachBathroomtobeCleaned + $10.00*OtherRoomstobeCleaned" style="whiteSpace=wrap;html=1;" vertex="1" parent="1">
          <mxGeometry x="20" y="330" width="340" height="60" as="geometry" />
        </mxCell>
        <mxCell id="bLj40t2lKKoUGWACWEi6-15" value="" style="edgeStyle=orthogonalEdgeStyle;rounded=0;orthogonalLoop=1;jettySize=auto;html=1;" edge="1" parent="1" source="bLj40t2lKKoUGWACWEi6-11" target="bLj40t2lKKoUGWACWEi6-14">
          <mxGeometry relative="1" as="geometry" />
        </mxCell>
        <mxCell id="bLj40t2lKKoUGWACWEi6-11" value="" style="swimlane;whiteSpace=wrap;html=1;" vertex="1" parent="1">
          <mxGeometry x="90" y="410" width="200" height="70" as="geometry" />
        </mxCell>
        <mxCell id="bLj40t2lKKoUGWACWEi6-12" value="DisplayInformationCollected" style="text;html=1;align=center;verticalAlign=middle;whiteSpace=wrap;rounded=0;" vertex="1" parent="bLj40t2lKKoUGWACWEi6-11">
          <mxGeometry y="20" width="200" height="50" as="geometry" />
        </mxCell>
        <mxCell id="bLj40t2lKKoUGWACWEi6-13" value="" style="endArrow=classic;html=1;rounded=0;exitX=0.5;exitY=1;exitDx=0;exitDy=0;entryX=0.5;entryY=0;entryDx=0;entryDy=0;" edge="1" parent="1" source="bLj40t2lKKoUGWACWEi6-8" target="bLj40t2lKKoUGWACWEi6-11">
          <mxGeometry width="50" height="50" relative="1" as="geometry">
            <mxPoint x="320" y="310" as="sourcePoint" />
            <mxPoint x="370" y="260" as="targetPoint" />
          </mxGeometry>
        </mxCell>
        <mxCell id="bLj40t2lKKoUGWACWEi6-17" value="" style="edgeStyle=orthogonalEdgeStyle;rounded=0;orthogonalLoop=1;jettySize=auto;html=1;" edge="1" parent="1" source="bLj40t2lKKoUGWACWEi6-14" target="bLj40t2lKKoUGWACWEi6-16">
          <mxGeometry relative="1" as="geometry" />
        </mxCell>
        <mxCell id="bLj40t2lKKoUGWACWEi6-14" value="&lt;span style=&quot;font-weight: normal;&quot;&gt;CostToCleanBathrooms=NumberofBathrooms*&lt;/span&gt;&lt;div&gt;&lt;span style=&quot;font-weight: normal;&quot;&gt;$15.00+$40.00&lt;/span&gt;&lt;/div&gt;" style="whiteSpace=wrap;html=1;fontStyle=1;startSize=23;" vertex="1" parent="1">
          <mxGeometry x="60" y="510" width="260" height="60" as="geometry" />
        </mxCell>
        <mxCell id="bLj40t2lKKoUGWACWEi6-19" value="" style="edgeStyle=orthogonalEdgeStyle;rounded=0;orthogonalLoop=1;jettySize=auto;html=1;" edge="1" parent="1" source="bLj40t2lKKoUGWACWEi6-16" target="bLj40t2lKKoUGWACWEi6-18">
          <mxGeometry relative="1" as="geometry" />
        </mxCell>
        <mxCell id="bLj40t2lKKoUGWACWEi6-16" value="&lt;span style=&quot;font-weight: normal;&quot;&gt;CostToCleanOtherRooms=&lt;/span&gt;&lt;div&gt;&lt;span style=&quot;font-weight: normal;&quot;&gt;NumberofOtherRooms*$10.00&lt;/span&gt;&lt;/div&gt;" style="whiteSpace=wrap;html=1;fontStyle=1;startSize=23;" vertex="1" parent="1">
          <mxGeometry x="105" y="600" width="170" height="60" as="geometry" />
        </mxCell>
        <mxCell id="bLj40t2lKKoUGWACWEi6-21" value="" style="edgeStyle=orthogonalEdgeStyle;rounded=0;orthogonalLoop=1;jettySize=auto;html=1;" edge="1" parent="1" source="bLj40t2lKKoUGWACWEi6-18" target="bLj40t2lKKoUGWACWEi6-20">
          <mxGeometry relative="1" as="geometry" />
        </mxCell>
        <mxCell id="bLj40t2lKKoUGWACWEi6-18" value="&lt;span style=&quot;font-weight: normal;&quot;&gt;OutputTotalCosttoClean&lt;/span&gt;&lt;div&gt;&lt;span style=&quot;font-weight: normal;&quot;&gt;BathroomsandOtherRooms&lt;/span&gt;&lt;/div&gt;" style="shape=parallelogram;perimeter=parallelogramPerimeter;whiteSpace=wrap;html=1;fixedSize=1;fontStyle=1;startSize=23;" vertex="1" parent="1">
          <mxGeometry x="95" y="690" width="190" height="60" as="geometry" />
        </mxCell>
        <mxCell id="bLj40t2lKKoUGWACWEi6-20" value="&lt;span style=&quot;font-weight: normal;&quot;&gt;OutputProgramHasBeenCompleted&lt;/span&gt;" style="shape=parallelogram;perimeter=parallelogramPerimeter;whiteSpace=wrap;html=1;fixedSize=1;fontStyle=1;startSize=23;" vertex="1" parent="1">
          <mxGeometry x="75" y="780" width="230" height="60" as="geometry" />
        </mxCell>
        <mxCell id="bLj40t2lKKoUGWACWEi6-24" value="" style="edgeStyle=orthogonalEdgeStyle;rounded=0;orthogonalLoop=1;jettySize=auto;html=1;" edge="1" parent="1" source="bLj40t2lKKoUGWACWEi6-22" target="bLj40t2lKKoUGWACWEi6-23">
          <mxGeometry relative="1" as="geometry" />
        </mxCell>
        <mxCell id="bLj40t2lKKoUGWACWEi6-22" value="DisplayInformation&lt;div&gt;Collected&lt;/div&gt;" style="ellipse;whiteSpace=wrap;html=1;" vertex="1" parent="1">
          <mxGeometry x="560" y="10" width="110" height="80" as="geometry" />
        </mxCell>
        <mxCell id="bLj40t2lKKoUGWACWEi6-26" value="" style="edgeStyle=orthogonalEdgeStyle;rounded=0;orthogonalLoop=1;jettySize=auto;html=1;" edge="1" parent="1" source="bLj40t2lKKoUGWACWEi6-23" target="bLj40t2lKKoUGWACWEi6-25">
          <mxGeometry relative="1" as="geometry" />
        </mxCell>
        <mxCell id="bLj40t2lKKoUGWACWEi6-23" value="Declarations&lt;div&gt;&lt;span style=&quot;white-space: pre;&quot;&gt;&#x9;&lt;/span&gt;CustomersName &quot; &quot;&lt;br&gt;&lt;/div&gt;&lt;div&gt;&lt;span style=&quot;white-space: pre;&quot;&gt;&#x9;&lt;/span&gt;NumberofBathrooms&quot; &quot;&lt;br&gt;&lt;/div&gt;&lt;div&gt;&lt;span style=&quot;white-space: pre;&quot;&gt;&#x9;&lt;/span&gt;NumberofOtherRoomstobe&lt;br&gt;&lt;/div&gt;&lt;div&gt;&lt;span style=&quot;white-space: pre;&quot;&gt;&#x9;&lt;/span&gt;Cleaned&quot; &quot;&lt;br&gt;&lt;/div&gt;" style="whiteSpace=wrap;html=1;align=left;" vertex="1" parent="1">
          <mxGeometry x="522.5" y="120" width="185" height="90" as="geometry" />
        </mxCell>
        <mxCell id="bLj40t2lKKoUGWACWEi6-28" value="" style="edgeStyle=orthogonalEdgeStyle;rounded=0;orthogonalLoop=1;jettySize=auto;html=1;" edge="1" parent="1" source="bLj40t2lKKoUGWACWEi6-25" target="bLj40t2lKKoUGWACWEi6-27">
          <mxGeometry relative="1" as="geometry" />
        </mxCell>
        <mxCell id="bLj40t2lKKoUGWACWEi6-25" value="OutputCustomers&lt;div&gt;Name&lt;/div&gt;" style="shape=parallelogram;perimeter=parallelogramPerimeter;whiteSpace=wrap;html=1;fixedSize=1;align=center;" vertex="1" parent="1">
          <mxGeometry x="555" y="240" width="120" height="60" as="geometry" />
        </mxCell>
        <mxCell id="bLj40t2lKKoUGWACWEi6-30" value="" style="edgeStyle=orthogonalEdgeStyle;rounded=0;orthogonalLoop=1;jettySize=auto;html=1;" edge="1" parent="1" source="bLj40t2lKKoUGWACWEi6-27" target="bLj40t2lKKoUGWACWEi6-29">
          <mxGeometry relative="1" as="geometry" />
        </mxCell>
        <mxCell id="bLj40t2lKKoUGWACWEi6-27" value="OutputNumber&lt;div&gt;ofBathrooms&lt;/div&gt;" style="shape=parallelogram;perimeter=parallelogramPerimeter;whiteSpace=wrap;html=1;fixedSize=1;" vertex="1" parent="1">
          <mxGeometry x="555" y="320" width="120" height="60" as="geometry" />
        </mxCell>
        <mxCell id="bLj40t2lKKoUGWACWEi6-32" value="" style="edgeStyle=orthogonalEdgeStyle;rounded=0;orthogonalLoop=1;jettySize=auto;html=1;" edge="1" parent="1" source="bLj40t2lKKoUGWACWEi6-29" target="bLj40t2lKKoUGWACWEi6-31">
          <mxGeometry relative="1" as="geometry" />
        </mxCell>
        <mxCell id="bLj40t2lKKoUGWACWEi6-29" value="OutputNumberofOtherRooms&lt;div&gt;tobeCleaned&lt;/div&gt;" style="shape=parallelogram;perimeter=parallelogramPerimeter;whiteSpace=wrap;html=1;fixedSize=1;" vertex="1" parent="1">
          <mxGeometry x="522.5" y="420" width="185" height="60" as="geometry" />
        </mxCell>
        <mxCell id="bLj40t2lKKoUGWACWEi6-31" value="Return" style="ellipse;whiteSpace=wrap;html=1;" vertex="1" parent="1">
          <mxGeometry x="577.5" y="525" width="75" height="50" as="geometry" />
        </mxCell>
      </root>
    </mxGraphModel>
  </diagram>
</mxfile>
